<svg xmlns="http://www.w3.org/2000/svg" width="1280" height="1600" viewBox="0 0 1280 1600">

<style>
  text { font-family: Helvetica, Arial, sans-serif; fill: #1f2933; }
  .title { font-size: 26px; font-weight: 700; }
  .subtitle { font-size: 15px; fill: #667085; }
  .axis { font-size: 16px; font-weight: 600; fill: #344054; }
  .tick { font-size: 13px; fill: #53616d; }
  .method { font-size: 12px; fill: #53616d; }
  .method-hi { font-size: 12px; font-weight: 700; fill: #1f2933; }
  .value { font-size: 11px; fill: #344054; }
  .value-hi { font-size: 11px; font-weight: 700; fill: #1f2933; }
</style>

<rect x="0.0" y="0.0" width="1280.0" height="1600.0" fill="#ffffff"/>
<text x="56.0" y="44.0" class="title">DMC-ICE13 relative-energy MAE ranking</text>
<text x="56.0" y="70.0" class="subtitle">All values are relative to ice Ih; MAE is evaluated over the 12 non-reference polymorphs.</text>
<rect x="285.0" y="112.0" width="925.0" height="1368.0" fill="#fbfcfd" stroke="#d5d8dc" stroke-width="1.1"/>
<line x1="285.0" y1="112.0" x2="285.0" y2="1480.0" stroke="#e5e7eb" stroke-width="1"/>
<text x="285.0" y="1507.0" text-anchor="middle" class="tick">0.3</text>
<line x1="405.8" y1="112.0" x2="405.8" y2="1480.0" stroke="#e5e7eb" stroke-width="1"/>
<text x="405.8" y="1507.0" text-anchor="middle" class="tick">0.5</text>
<line x1="569.7" y1="112.0" x2="569.7" y2="1480.0" stroke="#e5e7eb" stroke-width="1"/>
<text x="569.7" y="1507.0" text-anchor="middle" class="tick">1</text>
<line x1="733.6" y1="112.0" x2="733.6" y2="1480.0" stroke="#e5e7eb" stroke-width="1"/>
<text x="733.6" y="1507.0" text-anchor="middle" class="tick">2</text>
<line x1="950.2" y1="112.0" x2="950.2" y2="1480.0" stroke="#e5e7eb" stroke-width="1"/>
<text x="950.2" y="1507.0" text-anchor="middle" class="tick">5</text>
<line x1="1114.1" y1="112.0" x2="1114.1" y2="1480.0" stroke="#e5e7eb" stroke-width="1"/>
<text x="1114.1" y="1507.0" text-anchor="middle" class="tick">10</text>
<line x1="1210.0" y1="112.0" x2="1210.0" y2="1480.0" stroke="#e5e7eb" stroke-width="1"/>
<text x="1210.0" y="1507.0" text-anchor="middle" class="tick">15</text>
<line x1="569.7" y1="112.0" x2="569.7" y2="1480.0" stroke="#9aa5b1" stroke-width="1.4" stroke-dasharray="4 5"/>
<text x="574.7" y="130.0" class="tick">1 kJ mol-1</text>
<line x1="1114.1" y1="112.0" x2="1114.1" y2="1480.0" stroke="#9aa5b1" stroke-width="1.4" stroke-dasharray="4 5"/>
<text x="1119.1" y="130.0" class="tick">10 kJ mol-1</text>
<text x="747.5" y="1548.0" text-anchor="middle" class="axis">Relative-energy MAE vs DMC / kJ mol-1 (log scale)</text>
<text x="56.0" y="98.0" class="axis">Method</text>
<text x="1210.0" y="98.0" text-anchor="end" class="axis">MAE</text>
<line x1="285.0" y1="136.4" x2="397.4" y2="136.4" stroke="#9aa5b1" stroke-width="3.2" stroke-linecap="round" stroke-opacity="0.46"/>
<circle cx="397.4" cy="136.4" r="3.1" fill="#ffffff" stroke="#9aa5b1" stroke-width="1.4" stroke-opacity="0.46"/>
<text x="273.0" y="140.4" text-anchor="end" class="method">optB86b-vdW</text>
<text x="406.4" y="140.4" class="value">0.48</text>
<line x1="285.0" y1="160.9" x2="411.3" y2="160.9" stroke="#9aa5b1" stroke-width="3.2" stroke-linecap="round" stroke-opacity="0.46"/>
<circle cx="411.3" cy="160.9" r="3.1" fill="#ffffff" stroke="#9aa5b1" stroke-width="1.4" stroke-opacity="0.46"/>
<text x="273.0" y="164.9" text-anchor="end" class="method">B3LYP-D3atm</text>
<text x="420.3" y="164.9" class="value">0.51</text>
<line x1="285.0" y1="185.3" x2="440.9" y2="185.3" stroke="#ccb974" stroke-width="5.0" stroke-linecap="round" stroke-opacity="0.78"/>
<circle cx="440.9" cy="185.3" r="4.4" fill="#ffffff" stroke="#ccb974" stroke-width="1.4" stroke-opacity="0.78"/>
<text x="273.0" y="189.3" text-anchor="end" class="method">SCAN+rVV10</text>
<text x="449.9" y="189.3" class="value">0.58</text>
<line x1="285.0" y1="209.7" x2="469.0" y2="209.7" stroke="#9aa5b1" stroke-width="3.2" stroke-linecap="round" stroke-opacity="0.46"/>
<circle cx="469.0" cy="209.7" r="3.1" fill="#ffffff" stroke="#9aa5b1" stroke-width="1.4" stroke-opacity="0.46"/>
<text x="273.0" y="213.7" text-anchor="end" class="method">B3LYP-D3</text>
<text x="478.0" y="213.7" class="value">0.65</text>
<line x1="285.0" y1="234.1" x2="515.2" y2="234.1" stroke="#9aa5b1" stroke-width="3.2" stroke-linecap="round" stroke-opacity="0.46"/>
<circle cx="515.2" cy="234.1" r="3.1" fill="#ffffff" stroke="#9aa5b1" stroke-width="1.4" stroke-opacity="0.46"/>
<text x="273.0" y="238.1" text-anchor="end" class="method">revPBE-D3</text>
<text x="524.2" y="238.1" class="value">0.79</text>
<line x1="285.0" y1="258.6" x2="521.3" y2="258.6" stroke="#9aa5b1" stroke-width="3.2" stroke-linecap="round" stroke-opacity="0.46"/>
<circle cx="521.3" cy="258.6" r="3.1" fill="#ffffff" stroke="#9aa5b1" stroke-width="1.4" stroke-opacity="0.46"/>
<text x="273.0" y="262.6" text-anchor="end" class="method">optB88-vdW</text>
<text x="530.3" y="262.6" class="value">0.81</text>
<line x1="285.0" y1="283.0" x2="525.4" y2="283.0" stroke="#9aa5b1" stroke-width="3.2" stroke-linecap="round" stroke-opacity="0.46"/>
<circle cx="525.4" cy="283.0" r="3.1" fill="#ffffff" stroke="#9aa5b1" stroke-width="1.4" stroke-opacity="0.46"/>
<text x="273.0" y="287.0" text-anchor="end" class="method">revPBE0-D3atm</text>
<text x="534.4" y="287.0" class="value">0.83</text>
<line x1="285.0" y1="307.4" x2="543.2" y2="307.4" stroke="#9aa5b1" stroke-width="3.2" stroke-linecap="round" stroke-opacity="0.46"/>
<circle cx="543.2" cy="307.4" r="3.1" fill="#ffffff" stroke="#9aa5b1" stroke-width="1.4" stroke-opacity="0.46"/>
<text x="273.0" y="311.4" text-anchor="end" class="method">revPBE-D3atm</text>
<text x="552.2" y="311.4" class="value">0.89</text>
<line x1="285.0" y1="331.9" x2="574.4" y2="331.9" stroke="#9aa5b1" stroke-width="3.2" stroke-linecap="round" stroke-opacity="0.46"/>
<circle cx="574.4" cy="331.9" r="3.1" fill="#ffffff" stroke="#9aa5b1" stroke-width="1.4" stroke-opacity="0.46"/>
<text x="273.0" y="335.9" text-anchor="end" class="method">revPBE0-D3</text>
<text x="583.4" y="335.9" class="value">1.02</text>
<line x1="285.0" y1="356.3" x2="575.5" y2="356.3" stroke="#9aa5b1" stroke-width="3.2" stroke-linecap="round" stroke-opacity="0.46"/>
<circle cx="575.5" cy="356.3" r="3.1" fill="#ffffff" stroke="#9aa5b1" stroke-width="1.4" stroke-opacity="0.46"/>
<text x="273.0" y="360.3" text-anchor="end" class="method">optPBE-vdW</text>
<text x="584.5" y="360.3" class="value">1.02</text>
<line x1="285.0" y1="380.7" x2="577.1" y2="380.7" stroke="#9aa5b1" stroke-width="3.2" stroke-linecap="round" stroke-opacity="0.46"/>
<circle cx="577.1" cy="380.7" r="3.1" fill="#ffffff" stroke="#9aa5b1" stroke-width="1.4" stroke-opacity="0.46"/>
<text x="273.0" y="384.7" text-anchor="end" class="method">vdW-DF</text>
<text x="586.1" y="384.7" class="value">1.03</text>
<line x1="285.0" y1="405.1" x2="578.4" y2="405.1" stroke="#9aa5b1" stroke-width="3.2" stroke-linecap="round" stroke-opacity="0.46"/>
<circle cx="578.4" cy="405.1" r="3.1" fill="#ffffff" stroke="#9aa5b1" stroke-width="1.4" stroke-opacity="0.46"/>
<text x="273.0" y="409.1" text-anchor="end" class="method">R2SCAN</text>
<text x="587.4" y="409.1" class="value">1.04</text>
<line x1="285.0" y1="429.6" x2="605.1" y2="429.6" stroke="#dfcf8c" stroke-width="5.0" stroke-linecap="round" stroke-opacity="0.78"/>
<circle cx="605.1" cy="429.6" r="4.4" fill="#ffffff" stroke="#dfcf8c" stroke-width="1.4" stroke-opacity="0.78"/>
<text x="273.0" y="433.6" text-anchor="end" class="method">SCAN</text>
<text x="614.1" y="433.6" class="value">1.16</text>
<line x1="285.0" y1="454.0" x2="605.8" y2="454.0" stroke="#9aa5b1" stroke-width="3.2" stroke-linecap="round" stroke-opacity="0.46"/>
<circle cx="605.8" cy="454.0" r="3.1" fill="#ffffff" stroke="#9aa5b1" stroke-width="1.4" stroke-opacity="0.46"/>
<text x="273.0" y="458.0" text-anchor="end" class="method">PBE0-D3</text>
<text x="614.8" y="458.0" class="value">1.17</text>
<line x1="285.0" y1="478.4" x2="606.1" y2="478.4" stroke="#9aa5b1" stroke-width="3.2" stroke-linecap="round" stroke-opacity="0.46"/>
<circle cx="606.1" cy="478.4" r="3.1" fill="#ffffff" stroke="#9aa5b1" stroke-width="1.4" stroke-opacity="0.46"/>
<text x="273.0" y="482.4" text-anchor="end" class="method">HF</text>
<text x="615.1" y="482.4" class="value">1.17</text>
<line x1="285.0" y1="502.9" x2="638.9" y2="502.9" stroke="#9aa5b1" stroke-width="3.2" stroke-linecap="round" stroke-opacity="0.46"/>
<circle cx="638.9" cy="502.9" r="3.1" fill="#ffffff" stroke="#9aa5b1" stroke-width="1.4" stroke-opacity="0.46"/>
<text x="273.0" y="506.9" text-anchor="end" class="method">B3LYP-D3(BJ)</text>
<text x="647.9" y="506.9" class="value">1.34</text>
<line x1="285.0" y1="527.3" x2="640.3" y2="527.3" stroke="#9aa5b1" stroke-width="3.2" stroke-linecap="round" stroke-opacity="0.46"/>
<circle cx="640.3" cy="527.3" r="3.1" fill="#ffffff" stroke="#9aa5b1" stroke-width="1.4" stroke-opacity="0.46"/>
<text x="273.0" y="531.3" text-anchor="end" class="method">revPBE0-D3(BJ)</text>
<text x="649.3" y="531.3" class="value">1.35</text>
<line x1="285.0" y1="551.7" x2="644.5" y2="551.7" stroke="#9aa5b1" stroke-width="3.2" stroke-linecap="round" stroke-opacity="0.46"/>
<circle cx="644.5" cy="551.7" r="3.1" fill="#ffffff" stroke="#9aa5b1" stroke-width="1.4" stroke-opacity="0.46"/>
<text x="273.0" y="555.7" text-anchor="end" class="method">PBE0-D3atm</text>
<text x="653.5" y="555.7" class="value">1.37</text>
<line x1="285.0" y1="576.1" x2="661.3" y2="576.1" stroke="#9aa5b1" stroke-width="3.2" stroke-linecap="round" stroke-opacity="0.46"/>
<circle cx="661.3" cy="576.1" r="3.1" fill="#ffffff" stroke="#9aa5b1" stroke-width="1.4" stroke-opacity="0.46"/>
<text x="273.0" y="580.1" text-anchor="end" class="method">vdW-DF2</text>
<text x="670.3" y="580.1" class="value">1.47</text>
<line x1="285.0" y1="600.6" x2="669.1" y2="600.6" stroke="#9aa5b1" stroke-width="3.2" stroke-linecap="round" stroke-opacity="0.46"/>
<circle cx="669.1" cy="600.6" r="3.1" fill="#ffffff" stroke="#9aa5b1" stroke-width="1.4" stroke-opacity="0.46"/>
<text x="273.0" y="604.6" text-anchor="end" class="method">rev-vdW-DF2</text>
<text x="678.1" y="604.6" class="value">1.52</text>
<line x1="285.0" y1="625.0" x2="680.6" y2="625.0" stroke="#9aa5b1" stroke-width="3.2" stroke-linecap="round" stroke-opacity="0.46"/>
<circle cx="680.6" cy="625.0" r="3.1" fill="#ffffff" stroke="#9aa5b1" stroke-width="1.4" stroke-opacity="0.46"/>
<text x="273.0" y="629.0" text-anchor="end" class="method">B3LYP-D3(BJ)atm</text>
<text x="689.6" y="629.0" class="value">1.60</text>
<line x1="285.0" y1="649.4" x2="682.0" y2="649.4" stroke="#9aa5b1" stroke-width="3.2" stroke-linecap="round" stroke-opacity="0.46"/>
<circle cx="682.0" cy="649.4" r="3.1" fill="#ffffff" stroke="#9aa5b1" stroke-width="1.4" stroke-opacity="0.46"/>
<text x="273.0" y="653.4" text-anchor="end" class="method">revPBE0-D3(BJ)atm</text>
<text x="691.0" y="653.4" class="value">1.61</text>
<line x1="285.0" y1="673.9" x2="685.7" y2="673.9" stroke="#9aa5b1" stroke-width="3.2" stroke-linecap="round" stroke-opacity="0.46"/>
<circle cx="685.7" cy="673.9" r="3.1" fill="#ffffff" stroke="#9aa5b1" stroke-width="1.4" stroke-opacity="0.46"/>
<text x="273.0" y="677.9" text-anchor="end" class="method">RSCAN</text>
<text x="694.7" y="677.9" class="value">1.63</text>
<line x1="285.0" y1="698.3" x2="705.5" y2="698.3" stroke="#9aa5b1" stroke-width="3.2" stroke-linecap="round" stroke-opacity="0.46"/>
<circle cx="705.5" cy="698.3" r="3.1" fill="#ffffff" stroke="#9aa5b1" stroke-width="1.4" stroke-opacity="0.46"/>
<text x="273.0" y="702.3" text-anchor="end" class="method">PBE-TS</text>
<text x="714.5" y="702.3" class="value">1.78</text>
<line x1="285.0" y1="722.7" x2="713.1" y2="722.7" stroke="#9aa5b1" stroke-width="3.2" stroke-linecap="round" stroke-opacity="0.46"/>
<circle cx="713.1" cy="722.7" r="3.1" fill="#ffffff" stroke="#9aa5b1" stroke-width="1.4" stroke-opacity="0.46"/>
<text x="273.0" y="726.7" text-anchor="end" class="method">B3LYP-D4</text>
<text x="722.1" y="726.7" class="value">1.83</text>
<line x1="285.0" y1="747.1" x2="721.2" y2="747.1" stroke="#9aa5b1" stroke-width="3.2" stroke-linecap="round" stroke-opacity="0.46"/>
<circle cx="721.2" cy="747.1" r="3.1" fill="#ffffff" stroke="#9aa5b1" stroke-width="1.4" stroke-opacity="0.46"/>
<text x="273.0" y="751.1" text-anchor="end" class="method">PBE0-MBD</text>
<text x="730.2" y="751.1" class="value">1.90</text>
<line x1="285.0" y1="771.6" x2="739.3" y2="771.6" stroke="#9aa5b1" stroke-width="3.2" stroke-linecap="round" stroke-opacity="0.46"/>
<circle cx="739.3" cy="771.6" r="3.1" fill="#ffffff" stroke="#9aa5b1" stroke-width="1.4" stroke-opacity="0.46"/>
<text x="273.0" y="775.6" text-anchor="end" class="method">PBE0-TS</text>
<text x="748.3" y="775.6" class="value">2.05</text>
<line x1="285.0" y1="796.0" x2="739.9" y2="796.0" stroke="#9aa5b1" stroke-width="3.2" stroke-linecap="round" stroke-opacity="0.46"/>
<circle cx="739.9" cy="796.0" r="3.1" fill="#ffffff" stroke="#9aa5b1" stroke-width="1.4" stroke-opacity="0.46"/>
<text x="273.0" y="800.0" text-anchor="end" class="method">revPBE0-D4</text>
<text x="748.9" y="800.0" class="value">2.05</text>
<line x1="285.0" y1="820.4" x2="749.6" y2="820.4" stroke="#9aa5b1" stroke-width="3.2" stroke-linecap="round" stroke-opacity="0.46"/>
<circle cx="749.6" cy="820.4" r="3.1" fill="#ffffff" stroke="#9aa5b1" stroke-width="1.4" stroke-opacity="0.46"/>
<text x="273.0" y="824.4" text-anchor="end" class="method">PBE-D3</text>
<text x="758.6" y="824.4" class="value">2.14</text>
<line x1="285.0" y1="844.9" x2="758.0" y2="844.9" stroke="#9aa5b1" stroke-width="3.2" stroke-linecap="round" stroke-opacity="0.46"/>
<circle cx="758.0" cy="844.9" r="3.1" fill="#ffffff" stroke="#9aa5b1" stroke-width="1.4" stroke-opacity="0.46"/>
<text x="273.0" y="848.9" text-anchor="end" class="method">revPBE-D3(BJ)</text>
<text x="767.0" y="848.9" class="value">2.22</text>
<line x1="285.0" y1="869.3" x2="776.6" y2="869.3" stroke="#9aa5b1" stroke-width="3.2" stroke-linecap="round" stroke-opacity="0.46"/>
<circle cx="776.6" cy="869.3" r="3.1" fill="#ffffff" stroke="#9aa5b1" stroke-width="1.4" stroke-opacity="0.46"/>
<text x="273.0" y="873.3" text-anchor="end" class="method">PBE-D3atm</text>
<text x="785.6" y="873.3" class="value">2.40</text>
<line x1="285.0" y1="893.7" x2="778.9" y2="893.7" stroke="#9aa5b1" stroke-width="3.2" stroke-linecap="round" stroke-opacity="0.46"/>
<circle cx="778.9" cy="893.7" r="3.1" fill="#ffffff" stroke="#9aa5b1" stroke-width="1.4" stroke-opacity="0.46"/>
<text x="273.0" y="897.7" text-anchor="end" class="method">PBE0-D3(BJ)</text>
<text x="787.9" y="897.7" class="value">2.42</text>
<line x1="285.0" y1="918.1" x2="784.0" y2="918.1" stroke="#9aa5b1" stroke-width="3.2" stroke-linecap="round" stroke-opacity="0.46"/>
<circle cx="784.0" cy="918.1" r="3.1" fill="#ffffff" stroke="#9aa5b1" stroke-width="1.4" stroke-opacity="0.46"/>
<text x="273.0" y="922.1" text-anchor="end" class="method">revPBE-D3(BJ)atm</text>
<text x="793.0" y="922.1" class="value">2.48</text>
<line x1="285.0" y1="942.6" x2="802.8" y2="942.6" stroke="#9aa5b1" stroke-width="3.2" stroke-linecap="round" stroke-opacity="0.46"/>
<circle cx="802.8" cy="942.6" r="3.1" fill="#ffffff" stroke="#9aa5b1" stroke-width="1.4" stroke-opacity="0.46"/>
<text x="273.0" y="946.6" text-anchor="end" class="method">PBE0-D3(BJ)atm</text>
<text x="811.8" y="946.6" class="value">2.68</text>
<line x1="285.0" y1="967.0" x2="811.0" y2="967.0" stroke="#8172b3" stroke-width="5.0" stroke-linecap="round" stroke-opacity="0.78"/>
<circle cx="811.0" cy="967.0" r="4.4" fill="#ffffff" stroke="#8172b3" stroke-width="1.4" stroke-opacity="0.78"/>
<text x="273.0" y="971.0" text-anchor="end" class="method">PBE0-D4</text>
<text x="820.0" y="971.0" class="value">2.77</text>
<line x1="285.0" y1="991.4" x2="823.3" y2="991.4" stroke="#9aa5b1" stroke-width="3.2" stroke-linecap="round" stroke-opacity="0.46"/>
<circle cx="823.3" cy="991.4" r="3.1" fill="#ffffff" stroke="#9aa5b1" stroke-width="1.4" stroke-opacity="0.46"/>
<text x="273.0" y="995.4" text-anchor="end" class="method">PBE-MBD</text>
<text x="832.3" y="995.4" class="value">2.92</text>
<line x1="285.0" y1="1015.9" x2="832.3" y2="1015.9" stroke="#9aa5b1" stroke-width="3.2" stroke-linecap="round" stroke-opacity="0.46"/>
<circle cx="832.3" cy="1015.9" r="3.1" fill="#ffffff" stroke="#9aa5b1" stroke-width="1.4" stroke-opacity="0.46"/>
<text x="273.0" y="1019.9" text-anchor="end" class="method">revPBE-D4</text>
<text x="841.3" y="1019.9" class="value">3.04</text>
<line x1="285.0" y1="1040.3" x2="860.9" y2="1040.3" stroke="#9aa5b1" stroke-width="3.2" stroke-linecap="round" stroke-opacity="0.46"/>
<circle cx="860.9" cy="1040.3" r="3.1" fill="#ffffff" stroke="#9aa5b1" stroke-width="1.4" stroke-opacity="0.46"/>
<text x="273.0" y="1044.3" text-anchor="end" class="method">PBE-D3(BJ)</text>
<text x="869.9" y="1044.3" class="value">3.43</text>
<line x1="285.0" y1="1064.7" x2="872.2" y2="1064.7" stroke="#9aa5b1" stroke-width="3.2" stroke-linecap="round" stroke-opacity="0.46"/>
<circle cx="872.2" cy="1064.7" r="3.1" fill="#ffffff" stroke="#9aa5b1" stroke-width="1.4" stroke-opacity="0.46"/>
<text x="273.0" y="1068.7" text-anchor="end" class="method">HF-D3(BJ)atm</text>
<text x="881.2" y="1068.7" class="value">3.59</text>
<line x1="285.0" y1="1089.1" x2="878.1" y2="1089.1" stroke="#9aa5b1" stroke-width="3.2" stroke-linecap="round" stroke-opacity="0.46"/>
<circle cx="878.1" cy="1089.1" r="3.1" fill="#ffffff" stroke="#9aa5b1" stroke-width="1.4" stroke-opacity="0.46"/>
<text x="273.0" y="1093.1" text-anchor="end" class="method">PBE-D3(BJ)atm</text>
<text x="887.1" y="1093.1" class="value">3.69</text>
<line x1="285.0" y1="1113.6" x2="885.0" y2="1113.6" stroke="#55a868" stroke-width="5.0" stroke-linecap="round" stroke-opacity="0.78"/>
<circle cx="885.0" cy="1113.6" r="4.4" fill="#ffffff" stroke="#55a868" stroke-width="1.4" stroke-opacity="0.78"/>
<text x="273.0" y="1117.6" text-anchor="end" class="method">PBE-D4</text>
<text x="894.0" y="1117.6" class="value">3.79</text>
<line x1="285.0" y1="1138.0" x2="887.7" y2="1138.0" stroke="#9aa5b1" stroke-width="3.2" stroke-linecap="round" stroke-opacity="0.46"/>
<circle cx="887.7" cy="1138.0" r="3.1" fill="#ffffff" stroke="#9aa5b1" stroke-width="1.4" stroke-opacity="0.46"/>
<text x="273.0" y="1142.0" text-anchor="end" class="method">HF-D3(BJ)</text>
<text x="896.7" y="1142.0" class="value">3.84</text>
<line x1="285.0" y1="1162.4" x2="892.7" y2="1162.4" stroke="#9aa5b1" stroke-width="3.2" stroke-linecap="round" stroke-opacity="0.46"/>
<circle cx="892.7" cy="1162.4" r="3.1" fill="#ffffff" stroke="#9aa5b1" stroke-width="1.4" stroke-opacity="0.46"/>
<text x="273.0" y="1166.4" text-anchor="end" class="method">HF-D4</text>
<text x="901.7" y="1166.4" class="value">3.92</text>
<line x1="285.0" y1="1186.9" x2="961.8" y2="1186.9" stroke="#b8a7db" stroke-width="5.0" stroke-linecap="round" stroke-opacity="0.78"/>
<circle cx="961.8" cy="1186.9" r="4.4" fill="#ffffff" stroke="#b8a7db" stroke-width="1.4" stroke-opacity="0.78"/>
<text x="273.0" y="1190.9" text-anchor="end" class="method">PBE0</text>
<text x="970.8" y="1190.9" class="value">5.25</text>
<line x1="285.0" y1="1211.3" x2="983.0" y2="1211.3" stroke="#9aa5b1" stroke-width="3.2" stroke-linecap="round" stroke-opacity="0.46"/>
<circle cx="983.0" cy="1211.3" r="3.1" fill="#ffffff" stroke="#9aa5b1" stroke-width="1.4" stroke-opacity="0.46"/>
<text x="273.0" y="1215.3" text-anchor="end" class="method">B3LYP</text>
<text x="992.0" y="1215.3" class="value">5.74</text>
<line x1="285.0" y1="1235.7" x2="984.9" y2="1235.7" stroke="#9aa5b1" stroke-width="3.2" stroke-linecap="round" stroke-opacity="0.46"/>
<circle cx="984.9" cy="1235.7" r="3.1" fill="#ffffff" stroke="#9aa5b1" stroke-width="1.4" stroke-opacity="0.46"/>
<text x="273.0" y="1239.7" text-anchor="end" class="method">LDA</text>
<text x="993.9" y="1239.7" class="value">5.79</text>
<line x1="285.0" y1="1260.1" x2="1000.7" y2="1260.1" stroke="#9aa5b1" stroke-width="3.2" stroke-linecap="round" stroke-opacity="0.46"/>
<circle cx="1000.7" cy="1260.1" r="3.1" fill="#ffffff" stroke="#9aa5b1" stroke-width="1.4" stroke-opacity="0.46"/>
<text x="273.0" y="1264.1" text-anchor="end" class="method">HF-D3atm</text>
<text x="1009.7" y="1264.1" class="value">6.19</text>
<line x1="285.0" y1="1284.6" x2="1006.3" y2="1284.6" stroke="#9aa5b1" stroke-width="3.2" stroke-linecap="round" stroke-opacity="0.46"/>
<circle cx="1006.3" cy="1284.6" r="3.1" fill="#ffffff" stroke="#9aa5b1" stroke-width="1.4" stroke-opacity="0.46"/>
<text x="273.0" y="1288.6" text-anchor="end" class="method">revPBE0</text>
<text x="1015.3" y="1288.6" class="value">6.34</text>
<line x1="285.0" y1="1309.0" x2="1009.6" y2="1309.0" stroke="#9aa5b1" stroke-width="3.2" stroke-linecap="round" stroke-opacity="0.46"/>
<circle cx="1009.6" cy="1309.0" r="3.1" fill="#ffffff" stroke="#9aa5b1" stroke-width="1.4" stroke-opacity="0.46"/>
<text x="273.0" y="1313.0" text-anchor="end" class="method">HF-D3</text>
<text x="1018.6" y="1313.0" class="value">6.43</text>
<line x1="285.0" y1="1333.4" x2="1011.5" y2="1333.4" stroke="#9bd49f" stroke-width="5.0" stroke-linecap="round" stroke-opacity="0.78"/>
<circle cx="1011.5" cy="1333.4" r="4.4" fill="#ffffff" stroke="#9bd49f" stroke-width="1.4" stroke-opacity="0.78"/>
<text x="273.0" y="1337.4" text-anchor="end" class="method">PBE</text>
<text x="1020.5" y="1337.4" class="value">6.48</text>
<line x1="285.0" y1="1357.9" x2="1061.9" y2="1357.9" stroke="#9aa5b1" stroke-width="3.2" stroke-linecap="round" stroke-opacity="0.46"/>
<circle cx="1061.9" cy="1357.9" r="3.1" fill="#ffffff" stroke="#9aa5b1" stroke-width="1.4" stroke-opacity="0.46"/>
<text x="273.0" y="1361.9" text-anchor="end" class="method">revPBE</text>
<text x="1070.9" y="1361.9" class="value">8.02</text>
<line x1="285.0" y1="1382.3" x2="1077.1" y2="1382.3" stroke="#8fb0df" stroke-width="4.6" stroke-linecap="round" stroke-opacity="0.70" stroke-dasharray="8 7"/>
<circle cx="1077.1" cy="1382.3" r="4.8" fill="#ffffff" stroke="#8fb0df" stroke-width="2.0" stroke-opacity="0.70"/>
<text x="273.0" y="1386.3" text-anchor="end" class="method-hi">GFN2-xTB (Γ-point)</text>
<text x="1086.1" y="1386.3" class="value-hi">8.55</text>
<line x1="285.0" y1="1406.7" x2="1086.0" y2="1406.7" stroke="#4c72b0" stroke-width="7.0" stroke-linecap="round" stroke-opacity="0.95"/>
<circle cx="1086.0" cy="1406.7" r="5.7" fill="#ffffff" stroke="#4c72b0" stroke-width="2.0" stroke-opacity="0.95"/>
<text x="273.0" y="1410.7" text-anchor="end" class="method-hi">GFN2-xTB</text>
<text x="1095.0" y="1410.7" class="value-hi">8.88</text>
<line x1="285.0" y1="1431.1" x2="1134.4" y2="1431.1" stroke="#e6a0a3" stroke-width="4.6" stroke-linecap="round" stroke-opacity="0.70" stroke-dasharray="8 7"/>
<circle cx="1134.4" cy="1431.1" r="4.8" fill="#ffffff" stroke="#e6a0a3" stroke-width="2.0" stroke-opacity="0.70"/>
<text x="273.0" y="1435.1" text-anchor="end" class="method-hi">GFN1-xTB (Γ-point)</text>
<text x="1143.4" y="1435.1" class="value-hi">10.89</text>
<line x1="285.0" y1="1455.6" x2="1178.2" y2="1455.6" stroke="#c44e52" stroke-width="7.0" stroke-linecap="round" stroke-opacity="0.95"/>
<circle cx="1178.2" cy="1455.6" r="5.7" fill="#ffffff" stroke="#c44e52" stroke-width="2.0" stroke-opacity="0.95"/>
<text x="273.0" y="1459.6" text-anchor="end" class="method-hi">GFN1-xTB</text>
<text x="1187.2" y="1459.6" class="value-hi">13.11</text>
</svg>
