<svg xmlns="http://www.w3.org/2000/svg" width="1280" height="1600" viewBox="0 0 1280 1600">

<style>
  text { font-family: Helvetica, Arial, sans-serif; fill: #1f2933; }
  .title { font-size: 26px; font-weight: 700; }
  .subtitle { font-size: 15px; fill: #667085; }
  .axis { font-size: 16px; font-weight: 600; fill: #344054; }
  .tick { font-size: 13px; fill: #53616d; }
  .method { font-size: 12px; fill: #53616d; }
  .method-hi { font-size: 12px; font-weight: 700; fill: #1f2933; }
  .value { font-size: 11px; fill: #344054; }
  .value-hi { font-size: 11px; font-weight: 700; fill: #1f2933; }
</style>

<rect x="0.0" y="0.0" width="1280.0" height="1600.0" fill="#ffffff"/>
<text x="56.0" y="44.0" class="title">DMC-ICE13 relative-energy MAE ranking</text>
<text x="56.0" y="70.0" class="subtitle">All values are relative to ice Ih; MAE is evaluated over the 12 non-reference polymorphs.</text>
<rect x="285.0" y="112.0" width="925.0" height="1368.0" fill="#fbfcfd" stroke="#d5d8dc" stroke-width="1.1"/>
<line x1="285.0" y1="112.0" x2="285.0" y2="1480.0" stroke="#e5e7eb" stroke-width="1"/>
<text x="285.0" y="1507.0" text-anchor="middle" class="tick">0.3</text>
<line x1="405.8" y1="112.0" x2="405.8" y2="1480.0" stroke="#e5e7eb" stroke-width="1"/>
<text x="405.8" y="1507.0" text-anchor="middle" class="tick">0.5</text>
<line x1="569.7" y1="112.0" x2="569.7" y2="1480.0" stroke="#e5e7eb" stroke-width="1"/>
<text x="569.7" y="1507.0" text-anchor="middle" class="tick">1</text>
<line x1="733.6" y1="112.0" x2="733.6" y2="1480.0" stroke="#e5e7eb" stroke-width="1"/>
<text x="733.6" y="1507.0" text-anchor="middle" class="tick">2</text>
<line x1="950.2" y1="112.0" x2="950.2" y2="1480.0" stroke="#e5e7eb" stroke-width="1"/>
<text x="950.2" y="1507.0" text-anchor="middle" class="tick">5</text>
<line x1="1114.1" y1="112.0" x2="1114.1" y2="1480.0" stroke="#e5e7eb" stroke-width="1"/>
<text x="1114.1" y="1507.0" text-anchor="middle" class="tick">10</text>
<line x1="1210.0" y1="112.0" x2="1210.0" y2="1480.0" stroke="#e5e7eb" stroke-width="1"/>
<text x="1210.0" y="1507.0" text-anchor="middle" class="tick">15</text>
<line x1="569.7" y1="112.0" x2="569.7" y2="1480.0" stroke="#9aa5b1" stroke-width="1.4" stroke-dasharray="4 5"/>
<text x="574.7" y="130.0" class="tick">1 kJ mol-1</text>
<line x1="1114.1" y1="112.0" x2="1114.1" y2="1480.0" stroke="#9aa5b1" stroke-width="1.4" stroke-dasharray="4 5"/>
<text x="1119.1" y="130.0" class="tick">10 kJ mol-1</text>
<text x="747.5" y="1548.0" text-anchor="middle" class="axis">Relative-energy MAE vs DMC / kJ mol-1 (log scale)</text>
<text x="56.0" y="98.0" class="axis">Method</text>
<text x="1210.0" y="98.0" text-anchor="end" class="axis">MAE</text>
<line x1="285.0" y1="137.3" x2="397.4" y2="137.3" stroke="#55a868" stroke-width="5.0" stroke-linecap="round" stroke-opacity="0.78"/>
<circle cx="397.4" cy="137.3" r="4.4" fill="#ffffff" stroke="#55a868" stroke-width="1.4" stroke-opacity="0.78"/>
<text x="273.0" y="141.3" text-anchor="end" class="method">optB86b-vdW</text>
<text x="406.4" y="141.3" class="value">0.48</text>
<line x1="285.0" y1="162.7" x2="411.3" y2="162.7" stroke="#8172b3" stroke-width="5.0" stroke-linecap="round" stroke-opacity="0.78"/>
<circle cx="411.3" cy="162.7" r="4.4" fill="#ffffff" stroke="#8172b3" stroke-width="1.4" stroke-opacity="0.78"/>
<text x="273.0" y="166.7" text-anchor="end" class="method">B3LYP-D3atm</text>
<text x="420.3" y="166.7" class="value">0.51</text>
<line x1="285.0" y1="188.0" x2="440.9" y2="188.0" stroke="#ccb974" stroke-width="5.0" stroke-linecap="round" stroke-opacity="0.78"/>
<circle cx="440.9" cy="188.0" r="4.4" fill="#ffffff" stroke="#ccb974" stroke-width="1.4" stroke-opacity="0.78"/>
<text x="273.0" y="192.0" text-anchor="end" class="method">SCAN+rVV10</text>
<text x="449.9" y="192.0" class="value">0.58</text>
<line x1="285.0" y1="213.3" x2="469.0" y2="213.3" stroke="#9aa5b1" stroke-width="3.2" stroke-linecap="round" stroke-opacity="0.46"/>
<circle cx="469.0" cy="213.3" r="3.1" fill="#ffffff" stroke="#9aa5b1" stroke-width="1.4" stroke-opacity="0.46"/>
<text x="273.0" y="217.3" text-anchor="end" class="method">B3LYP-D3</text>
<text x="478.0" y="217.3" class="value">0.65</text>
<line x1="285.0" y1="238.7" x2="515.2" y2="238.7" stroke="#55a868" stroke-width="5.0" stroke-linecap="round" stroke-opacity="0.78"/>
<circle cx="515.2" cy="238.7" r="4.4" fill="#ffffff" stroke="#55a868" stroke-width="1.4" stroke-opacity="0.78"/>
<text x="273.0" y="242.7" text-anchor="end" class="method">revPBE-D3</text>
<text x="524.2" y="242.7" class="value">0.79</text>
<line x1="285.0" y1="264.0" x2="521.3" y2="264.0" stroke="#9aa5b1" stroke-width="3.2" stroke-linecap="round" stroke-opacity="0.46"/>
<circle cx="521.3" cy="264.0" r="3.1" fill="#ffffff" stroke="#9aa5b1" stroke-width="1.4" stroke-opacity="0.46"/>
<text x="273.0" y="268.0" text-anchor="end" class="method">optB88-vdW</text>
<text x="530.3" y="268.0" class="value">0.81</text>
<line x1="285.0" y1="289.3" x2="525.4" y2="289.3" stroke="#9aa5b1" stroke-width="3.2" stroke-linecap="round" stroke-opacity="0.46"/>
<circle cx="525.4" cy="289.3" r="3.1" fill="#ffffff" stroke="#9aa5b1" stroke-width="1.4" stroke-opacity="0.46"/>
<text x="273.0" y="293.3" text-anchor="end" class="method">revPBE0-D3atm</text>
<text x="534.4" y="293.3" class="value">0.83</text>
<line x1="285.0" y1="314.7" x2="543.2" y2="314.7" stroke="#9aa5b1" stroke-width="3.2" stroke-linecap="round" stroke-opacity="0.46"/>
<circle cx="543.2" cy="314.7" r="3.1" fill="#ffffff" stroke="#9aa5b1" stroke-width="1.4" stroke-opacity="0.46"/>
<text x="273.0" y="318.7" text-anchor="end" class="method">revPBE-D3atm</text>
<text x="552.2" y="318.7" class="value">0.89</text>
<line x1="285.0" y1="340.0" x2="574.4" y2="340.0" stroke="#9aa5b1" stroke-width="3.2" stroke-linecap="round" stroke-opacity="0.46"/>
<circle cx="574.4" cy="340.0" r="3.1" fill="#ffffff" stroke="#9aa5b1" stroke-width="1.4" stroke-opacity="0.46"/>
<text x="273.0" y="344.0" text-anchor="end" class="method">revPBE0-D3</text>
<text x="583.4" y="344.0" class="value">1.02</text>
<line x1="285.0" y1="365.3" x2="575.5" y2="365.3" stroke="#9aa5b1" stroke-width="3.2" stroke-linecap="round" stroke-opacity="0.46"/>
<circle cx="575.5" cy="365.3" r="3.1" fill="#ffffff" stroke="#9aa5b1" stroke-width="1.4" stroke-opacity="0.46"/>
<text x="273.0" y="369.3" text-anchor="end" class="method">optPBE-vdW</text>
<text x="584.5" y="369.3" class="value">1.02</text>
<line x1="285.0" y1="390.7" x2="577.1" y2="390.7" stroke="#9aa5b1" stroke-width="3.2" stroke-linecap="round" stroke-opacity="0.46"/>
<circle cx="577.1" cy="390.7" r="3.1" fill="#ffffff" stroke="#9aa5b1" stroke-width="1.4" stroke-opacity="0.46"/>
<text x="273.0" y="394.7" text-anchor="end" class="method">vdW-DF</text>
<text x="586.1" y="394.7" class="value">1.03</text>
<line x1="285.0" y1="416.0" x2="578.4" y2="416.0" stroke="#9aa5b1" stroke-width="3.2" stroke-linecap="round" stroke-opacity="0.46"/>
<circle cx="578.4" cy="416.0" r="3.1" fill="#ffffff" stroke="#9aa5b1" stroke-width="1.4" stroke-opacity="0.46"/>
<text x="273.0" y="420.0" text-anchor="end" class="method">R2SCAN</text>
<text x="587.4" y="420.0" class="value">1.04</text>
<line x1="285.0" y1="441.3" x2="605.1" y2="441.3" stroke="#9aa5b1" stroke-width="3.2" stroke-linecap="round" stroke-opacity="0.46"/>
<circle cx="605.1" cy="441.3" r="3.1" fill="#ffffff" stroke="#9aa5b1" stroke-width="1.4" stroke-opacity="0.46"/>
<text x="273.0" y="445.3" text-anchor="end" class="method">SCAN</text>
<text x="614.1" y="445.3" class="value">1.16</text>
<line x1="285.0" y1="466.7" x2="605.8" y2="466.7" stroke="#9aa5b1" stroke-width="3.2" stroke-linecap="round" stroke-opacity="0.46"/>
<circle cx="605.8" cy="466.7" r="3.1" fill="#ffffff" stroke="#9aa5b1" stroke-width="1.4" stroke-opacity="0.46"/>
<text x="273.0" y="470.7" text-anchor="end" class="method">PBE0-D3</text>
<text x="614.8" y="470.7" class="value">1.17</text>
<line x1="285.0" y1="492.0" x2="606.1" y2="492.0" stroke="#9aa5b1" stroke-width="3.2" stroke-linecap="round" stroke-opacity="0.46"/>
<circle cx="606.1" cy="492.0" r="3.1" fill="#ffffff" stroke="#9aa5b1" stroke-width="1.4" stroke-opacity="0.46"/>
<text x="273.0" y="496.0" text-anchor="end" class="method">HF</text>
<text x="615.1" y="496.0" class="value">1.17</text>
<line x1="285.0" y1="517.3" x2="638.9" y2="517.3" stroke="#9aa5b1" stroke-width="3.2" stroke-linecap="round" stroke-opacity="0.46"/>
<circle cx="638.9" cy="517.3" r="3.1" fill="#ffffff" stroke="#9aa5b1" stroke-width="1.4" stroke-opacity="0.46"/>
<text x="273.0" y="521.3" text-anchor="end" class="method">B3LYP-D3(BJ)</text>
<text x="647.9" y="521.3" class="value">1.34</text>
<line x1="285.0" y1="542.7" x2="640.3" y2="542.7" stroke="#9aa5b1" stroke-width="3.2" stroke-linecap="round" stroke-opacity="0.46"/>
<circle cx="640.3" cy="542.7" r="3.1" fill="#ffffff" stroke="#9aa5b1" stroke-width="1.4" stroke-opacity="0.46"/>
<text x="273.0" y="546.7" text-anchor="end" class="method">revPBE0-D3(BJ)</text>
<text x="649.3" y="546.7" class="value">1.35</text>
<line x1="285.0" y1="568.0" x2="644.5" y2="568.0" stroke="#9aa5b1" stroke-width="3.2" stroke-linecap="round" stroke-opacity="0.46"/>
<circle cx="644.5" cy="568.0" r="3.1" fill="#ffffff" stroke="#9aa5b1" stroke-width="1.4" stroke-opacity="0.46"/>
<text x="273.0" y="572.0" text-anchor="end" class="method">PBE0-D3atm</text>
<text x="653.5" y="572.0" class="value">1.37</text>
<line x1="285.0" y1="593.3" x2="661.3" y2="593.3" stroke="#9aa5b1" stroke-width="3.2" stroke-linecap="round" stroke-opacity="0.46"/>
<circle cx="661.3" cy="593.3" r="3.1" fill="#ffffff" stroke="#9aa5b1" stroke-width="1.4" stroke-opacity="0.46"/>
<text x="273.0" y="597.3" text-anchor="end" class="method">vdW-DF2</text>
<text x="670.3" y="597.3" class="value">1.47</text>
<line x1="285.0" y1="618.7" x2="669.1" y2="618.7" stroke="#9aa5b1" stroke-width="3.2" stroke-linecap="round" stroke-opacity="0.46"/>
<circle cx="669.1" cy="618.7" r="3.1" fill="#ffffff" stroke="#9aa5b1" stroke-width="1.4" stroke-opacity="0.46"/>
<text x="273.0" y="622.7" text-anchor="end" class="method">rev-vdW-DF2</text>
<text x="678.1" y="622.7" class="value">1.52</text>
<line x1="285.0" y1="644.0" x2="680.6" y2="644.0" stroke="#9aa5b1" stroke-width="3.2" stroke-linecap="round" stroke-opacity="0.46"/>
<circle cx="680.6" cy="644.0" r="3.1" fill="#ffffff" stroke="#9aa5b1" stroke-width="1.4" stroke-opacity="0.46"/>
<text x="273.0" y="648.0" text-anchor="end" class="method">B3LYP-D3(BJ)atm</text>
<text x="689.6" y="648.0" class="value">1.60</text>
<line x1="285.0" y1="669.3" x2="682.0" y2="669.3" stroke="#9aa5b1" stroke-width="3.2" stroke-linecap="round" stroke-opacity="0.46"/>
<circle cx="682.0" cy="669.3" r="3.1" fill="#ffffff" stroke="#9aa5b1" stroke-width="1.4" stroke-opacity="0.46"/>
<text x="273.0" y="673.3" text-anchor="end" class="method">revPBE0-D3(BJ)atm</text>
<text x="691.0" y="673.3" class="value">1.61</text>
<line x1="285.0" y1="694.7" x2="685.7" y2="694.7" stroke="#9aa5b1" stroke-width="3.2" stroke-linecap="round" stroke-opacity="0.46"/>
<circle cx="685.7" cy="694.7" r="3.1" fill="#ffffff" stroke="#9aa5b1" stroke-width="1.4" stroke-opacity="0.46"/>
<text x="273.0" y="698.7" text-anchor="end" class="method">RSCAN</text>
<text x="694.7" y="698.7" class="value">1.63</text>
<line x1="285.0" y1="720.0" x2="705.5" y2="720.0" stroke="#9aa5b1" stroke-width="3.2" stroke-linecap="round" stroke-opacity="0.46"/>
<circle cx="705.5" cy="720.0" r="3.1" fill="#ffffff" stroke="#9aa5b1" stroke-width="1.4" stroke-opacity="0.46"/>
<text x="273.0" y="724.0" text-anchor="end" class="method">PBE-TS</text>
<text x="714.5" y="724.0" class="value">1.78</text>
<line x1="285.0" y1="745.3" x2="713.1" y2="745.3" stroke="#9aa5b1" stroke-width="3.2" stroke-linecap="round" stroke-opacity="0.46"/>
<circle cx="713.1" cy="745.3" r="3.1" fill="#ffffff" stroke="#9aa5b1" stroke-width="1.4" stroke-opacity="0.46"/>
<text x="273.0" y="749.3" text-anchor="end" class="method">B3LYP-D4</text>
<text x="722.1" y="749.3" class="value">1.83</text>
<line x1="285.0" y1="770.7" x2="721.2" y2="770.7" stroke="#9aa5b1" stroke-width="3.2" stroke-linecap="round" stroke-opacity="0.46"/>
<circle cx="721.2" cy="770.7" r="3.1" fill="#ffffff" stroke="#9aa5b1" stroke-width="1.4" stroke-opacity="0.46"/>
<text x="273.0" y="774.7" text-anchor="end" class="method">PBE0-MBD</text>
<text x="730.2" y="774.7" class="value">1.90</text>
<line x1="285.0" y1="796.0" x2="739.3" y2="796.0" stroke="#9aa5b1" stroke-width="3.2" stroke-linecap="round" stroke-opacity="0.46"/>
<circle cx="739.3" cy="796.0" r="3.1" fill="#ffffff" stroke="#9aa5b1" stroke-width="1.4" stroke-opacity="0.46"/>
<text x="273.0" y="800.0" text-anchor="end" class="method">PBE0-TS</text>
<text x="748.3" y="800.0" class="value">2.05</text>
<line x1="285.0" y1="821.3" x2="739.9" y2="821.3" stroke="#9aa5b1" stroke-width="3.2" stroke-linecap="round" stroke-opacity="0.46"/>
<circle cx="739.9" cy="821.3" r="3.1" fill="#ffffff" stroke="#9aa5b1" stroke-width="1.4" stroke-opacity="0.46"/>
<text x="273.0" y="825.3" text-anchor="end" class="method">revPBE0-D4</text>
<text x="748.9" y="825.3" class="value">2.05</text>
<line x1="285.0" y1="846.7" x2="749.6" y2="846.7" stroke="#9aa5b1" stroke-width="3.2" stroke-linecap="round" stroke-opacity="0.46"/>
<circle cx="749.6" cy="846.7" r="3.1" fill="#ffffff" stroke="#9aa5b1" stroke-width="1.4" stroke-opacity="0.46"/>
<text x="273.0" y="850.7" text-anchor="end" class="method">PBE-D3</text>
<text x="758.6" y="850.7" class="value">2.14</text>
<line x1="285.0" y1="872.0" x2="758.0" y2="872.0" stroke="#9aa5b1" stroke-width="3.2" stroke-linecap="round" stroke-opacity="0.46"/>
<circle cx="758.0" cy="872.0" r="3.1" fill="#ffffff" stroke="#9aa5b1" stroke-width="1.4" stroke-opacity="0.46"/>
<text x="273.0" y="876.0" text-anchor="end" class="method">revPBE-D3(BJ)</text>
<text x="767.0" y="876.0" class="value">2.22</text>
<line x1="285.0" y1="897.3" x2="776.6" y2="897.3" stroke="#9aa5b1" stroke-width="3.2" stroke-linecap="round" stroke-opacity="0.46"/>
<circle cx="776.6" cy="897.3" r="3.1" fill="#ffffff" stroke="#9aa5b1" stroke-width="1.4" stroke-opacity="0.46"/>
<text x="273.0" y="901.3" text-anchor="end" class="method">PBE-D3atm</text>
<text x="785.6" y="901.3" class="value">2.40</text>
<line x1="285.0" y1="922.7" x2="778.9" y2="922.7" stroke="#9aa5b1" stroke-width="3.2" stroke-linecap="round" stroke-opacity="0.46"/>
<circle cx="778.9" cy="922.7" r="3.1" fill="#ffffff" stroke="#9aa5b1" stroke-width="1.4" stroke-opacity="0.46"/>
<text x="273.0" y="926.7" text-anchor="end" class="method">PBE0-D3(BJ)</text>
<text x="787.9" y="926.7" class="value">2.42</text>
<line x1="285.0" y1="948.0" x2="784.0" y2="948.0" stroke="#9aa5b1" stroke-width="3.2" stroke-linecap="round" stroke-opacity="0.46"/>
<circle cx="784.0" cy="948.0" r="3.1" fill="#ffffff" stroke="#9aa5b1" stroke-width="1.4" stroke-opacity="0.46"/>
<text x="273.0" y="952.0" text-anchor="end" class="method">revPBE-D3(BJ)atm</text>
<text x="793.0" y="952.0" class="value">2.48</text>
<line x1="285.0" y1="973.3" x2="802.8" y2="973.3" stroke="#9aa5b1" stroke-width="3.2" stroke-linecap="round" stroke-opacity="0.46"/>
<circle cx="802.8" cy="973.3" r="3.1" fill="#ffffff" stroke="#9aa5b1" stroke-width="1.4" stroke-opacity="0.46"/>
<text x="273.0" y="977.3" text-anchor="end" class="method">PBE0-D3(BJ)atm</text>
<text x="811.8" y="977.3" class="value">2.68</text>
<line x1="285.0" y1="998.7" x2="811.0" y2="998.7" stroke="#9aa5b1" stroke-width="3.2" stroke-linecap="round" stroke-opacity="0.46"/>
<circle cx="811.0" cy="998.7" r="3.1" fill="#ffffff" stroke="#9aa5b1" stroke-width="1.4" stroke-opacity="0.46"/>
<text x="273.0" y="1002.7" text-anchor="end" class="method">PBE0-D4</text>
<text x="820.0" y="1002.7" class="value">2.77</text>
<line x1="285.0" y1="1024.0" x2="823.3" y2="1024.0" stroke="#9aa5b1" stroke-width="3.2" stroke-linecap="round" stroke-opacity="0.46"/>
<circle cx="823.3" cy="1024.0" r="3.1" fill="#ffffff" stroke="#9aa5b1" stroke-width="1.4" stroke-opacity="0.46"/>
<text x="273.0" y="1028.0" text-anchor="end" class="method">PBE-MBD</text>
<text x="832.3" y="1028.0" class="value">2.92</text>
<line x1="285.0" y1="1049.3" x2="832.3" y2="1049.3" stroke="#9aa5b1" stroke-width="3.2" stroke-linecap="round" stroke-opacity="0.46"/>
<circle cx="832.3" cy="1049.3" r="3.1" fill="#ffffff" stroke="#9aa5b1" stroke-width="1.4" stroke-opacity="0.46"/>
<text x="273.0" y="1053.3" text-anchor="end" class="method">revPBE-D4</text>
<text x="841.3" y="1053.3" class="value">3.04</text>
<line x1="285.0" y1="1074.7" x2="860.9" y2="1074.7" stroke="#9aa5b1" stroke-width="3.2" stroke-linecap="round" stroke-opacity="0.46"/>
<circle cx="860.9" cy="1074.7" r="3.1" fill="#ffffff" stroke="#9aa5b1" stroke-width="1.4" stroke-opacity="0.46"/>
<text x="273.0" y="1078.7" text-anchor="end" class="method">PBE-D3(BJ)</text>
<text x="869.9" y="1078.7" class="value">3.43</text>
<line x1="285.0" y1="1100.0" x2="872.2" y2="1100.0" stroke="#9aa5b1" stroke-width="3.2" stroke-linecap="round" stroke-opacity="0.46"/>
<circle cx="872.2" cy="1100.0" r="3.1" fill="#ffffff" stroke="#9aa5b1" stroke-width="1.4" stroke-opacity="0.46"/>
<text x="273.0" y="1104.0" text-anchor="end" class="method">HF-D3(BJ)atm</text>
<text x="881.2" y="1104.0" class="value">3.59</text>
<line x1="285.0" y1="1125.3" x2="878.1" y2="1125.3" stroke="#9aa5b1" stroke-width="3.2" stroke-linecap="round" stroke-opacity="0.46"/>
<circle cx="878.1" cy="1125.3" r="3.1" fill="#ffffff" stroke="#9aa5b1" stroke-width="1.4" stroke-opacity="0.46"/>
<text x="273.0" y="1129.3" text-anchor="end" class="method">PBE-D3(BJ)atm</text>
<text x="887.1" y="1129.3" class="value">3.69</text>
<line x1="285.0" y1="1150.7" x2="885.0" y2="1150.7" stroke="#9aa5b1" stroke-width="3.2" stroke-linecap="round" stroke-opacity="0.46"/>
<circle cx="885.0" cy="1150.7" r="3.1" fill="#ffffff" stroke="#9aa5b1" stroke-width="1.4" stroke-opacity="0.46"/>
<text x="273.0" y="1154.7" text-anchor="end" class="method">PBE-D4</text>
<text x="894.0" y="1154.7" class="value">3.79</text>
<line x1="285.0" y1="1176.0" x2="887.7" y2="1176.0" stroke="#9aa5b1" stroke-width="3.2" stroke-linecap="round" stroke-opacity="0.46"/>
<circle cx="887.7" cy="1176.0" r="3.1" fill="#ffffff" stroke="#9aa5b1" stroke-width="1.4" stroke-opacity="0.46"/>
<text x="273.0" y="1180.0" text-anchor="end" class="method">HF-D3(BJ)</text>
<text x="896.7" y="1180.0" class="value">3.84</text>
<line x1="285.0" y1="1201.3" x2="892.7" y2="1201.3" stroke="#9aa5b1" stroke-width="3.2" stroke-linecap="round" stroke-opacity="0.46"/>
<circle cx="892.7" cy="1201.3" r="3.1" fill="#ffffff" stroke="#9aa5b1" stroke-width="1.4" stroke-opacity="0.46"/>
<text x="273.0" y="1205.3" text-anchor="end" class="method">HF-D4</text>
<text x="901.7" y="1205.3" class="value">3.92</text>
<line x1="285.0" y1="1226.7" x2="961.8" y2="1226.7" stroke="#9aa5b1" stroke-width="3.2" stroke-linecap="round" stroke-opacity="0.46"/>
<circle cx="961.8" cy="1226.7" r="3.1" fill="#ffffff" stroke="#9aa5b1" stroke-width="1.4" stroke-opacity="0.46"/>
<text x="273.0" y="1230.7" text-anchor="end" class="method">PBE0</text>
<text x="970.8" y="1230.7" class="value">5.25</text>
<line x1="285.0" y1="1252.0" x2="983.0" y2="1252.0" stroke="#9aa5b1" stroke-width="3.2" stroke-linecap="round" stroke-opacity="0.46"/>
<circle cx="983.0" cy="1252.0" r="3.1" fill="#ffffff" stroke="#9aa5b1" stroke-width="1.4" stroke-opacity="0.46"/>
<text x="273.0" y="1256.0" text-anchor="end" class="method">B3LYP</text>
<text x="992.0" y="1256.0" class="value">5.74</text>
<line x1="285.0" y1="1277.3" x2="984.9" y2="1277.3" stroke="#9aa5b1" stroke-width="3.2" stroke-linecap="round" stroke-opacity="0.46"/>
<circle cx="984.9" cy="1277.3" r="3.1" fill="#ffffff" stroke="#9aa5b1" stroke-width="1.4" stroke-opacity="0.46"/>
<text x="273.0" y="1281.3" text-anchor="end" class="method">LDA</text>
<text x="993.9" y="1281.3" class="value">5.79</text>
<line x1="285.0" y1="1302.7" x2="1000.7" y2="1302.7" stroke="#9aa5b1" stroke-width="3.2" stroke-linecap="round" stroke-opacity="0.46"/>
<circle cx="1000.7" cy="1302.7" r="3.1" fill="#ffffff" stroke="#9aa5b1" stroke-width="1.4" stroke-opacity="0.46"/>
<text x="273.0" y="1306.7" text-anchor="end" class="method">HF-D3atm</text>
<text x="1009.7" y="1306.7" class="value">6.19</text>
<line x1="285.0" y1="1328.0" x2="1006.3" y2="1328.0" stroke="#9aa5b1" stroke-width="3.2" stroke-linecap="round" stroke-opacity="0.46"/>
<circle cx="1006.3" cy="1328.0" r="3.1" fill="#ffffff" stroke="#9aa5b1" stroke-width="1.4" stroke-opacity="0.46"/>
<text x="273.0" y="1332.0" text-anchor="end" class="method">revPBE0</text>
<text x="1015.3" y="1332.0" class="value">6.34</text>
<line x1="285.0" y1="1353.3" x2="1009.6" y2="1353.3" stroke="#9aa5b1" stroke-width="3.2" stroke-linecap="round" stroke-opacity="0.46"/>
<circle cx="1009.6" cy="1353.3" r="3.1" fill="#ffffff" stroke="#9aa5b1" stroke-width="1.4" stroke-opacity="0.46"/>
<text x="273.0" y="1357.3" text-anchor="end" class="method">HF-D3</text>
<text x="1018.6" y="1357.3" class="value">6.43</text>
<line x1="285.0" y1="1378.7" x2="1011.5" y2="1378.7" stroke="#9aa5b1" stroke-width="3.2" stroke-linecap="round" stroke-opacity="0.46"/>
<circle cx="1011.5" cy="1378.7" r="3.1" fill="#ffffff" stroke="#9aa5b1" stroke-width="1.4" stroke-opacity="0.46"/>
<text x="273.0" y="1382.7" text-anchor="end" class="method">PBE</text>
<text x="1020.5" y="1382.7" class="value">6.48</text>
<line x1="285.0" y1="1404.0" x2="1061.9" y2="1404.0" stroke="#9aa5b1" stroke-width="3.2" stroke-linecap="round" stroke-opacity="0.46"/>
<circle cx="1061.9" cy="1404.0" r="3.1" fill="#ffffff" stroke="#9aa5b1" stroke-width="1.4" stroke-opacity="0.46"/>
<text x="273.0" y="1408.0" text-anchor="end" class="method">revPBE</text>
<text x="1070.9" y="1408.0" class="value">8.02</text>
<line x1="285.0" y1="1429.3" x2="1086.0" y2="1429.3" stroke="#4c72b0" stroke-width="7.0" stroke-linecap="round" stroke-opacity="0.95"/>
<circle cx="1086.0" cy="1429.3" r="5.7" fill="#ffffff" stroke="#4c72b0" stroke-width="2.0" stroke-opacity="0.95"/>
<text x="273.0" y="1433.3" text-anchor="end" class="method-hi">GFN2-xTB</text>
<text x="1095.0" y="1433.3" class="value-hi">8.88</text>
<line x1="285.0" y1="1454.7" x2="1178.2" y2="1454.7" stroke="#c44e52" stroke-width="7.0" stroke-linecap="round" stroke-opacity="0.95"/>
<circle cx="1178.2" cy="1454.7" r="5.7" fill="#ffffff" stroke="#c44e52" stroke-width="2.0" stroke-opacity="0.95"/>
<text x="273.0" y="1458.7" text-anchor="end" class="method-hi">GFN1-xTB</text>
<text x="1187.2" y="1458.7" class="value-hi">13.11</text>
<text x="56.0" y="1580.0" class="subtitle">Published DFT data from Della Pia et al., J. Chem. Phys. 157, 134701 (2022); GFN1/GFN2 from CP2K/tblite single points in this work.</text>
</svg>
